<?xml version="1.0" standalone="no"?>
<!DOCTYPE svg PUBLIC "-//W3C//DTD SVG 20010904//EN"
 "http://www.w3.org/TR/2001/REC-SVG-20010904/DTD/svg10.dtd">
<svg version="1.0" xmlns="http://www.w3.org/2000/svg"
 width="700.000000pt" height="700.000000pt" viewBox="0 0 700.000000 700.000000"
 preserveAspectRatio="xMidYMid meet">
<metadata>
Created by potrace 1.11, written by Peter Selinger 2001-2013
</metadata>
<g transform="translate(0.000000,700.000000) scale(0.100000,-0.100000)"
fill="#000000" stroke="none">
<path d="M1318 4601 c-598 -598 -1088 -1092 -1090 -1098 -2 -5 488 -501 1088
-1101 l1090 -1091 329 329 329 329 -766 765 -765 766 765 766 766 765 -330
329 -329 329 -1087 -1088z"/>
<path d="M4265 5360 l-329 -329 766 -765 766 -766 -766 -766 -766 -765 329
-329 329 -329 1094 1095 1095 1094 -549 549 c-302 301 -795 794 -1095 1094
l-546 546 -328 -329z"/>
</g>
</svg>
